<?xml version="1.0" encoding="UTF-8"?>
<svg id="Camada_1" xmlns="http://www.w3.org/2000/svg" version="1.1" viewBox="0 0 400 141">
  <!-- Generator: Adobe Illustrator 30.3.0, SVG Export Plug-In . SVG Version: 2.1.3 Build 182)  -->
  <defs>
    <style>
      .st0 {
        fill: #fff;
      }
    </style>
  </defs>
  <g>
    <path class="st0" d="M36.6,49.69h-6.53v6.44h-2.45c-.31-.87-.78-1.73-1.42-2.61-.64-.87-1.44-1.66-2.38-2.38-.94-.72-2.03-1.29-3.26-1.72s-2.53-.66-3.91-.66c-2.2,0-4.31.42-6.33,1.26-2.02.84-3.8,2.11-5.34,3.8s-2.75,3.8-3.64,6.33-1.34,5.51-1.34,8.94.45,6.33,1.34,8.87,2.11,4.64,3.64,6.33c1.54,1.69,3.31,2.96,5.34,3.8,2.02.84,4.13,1.26,6.33,1.26,1.39,0,2.69-.22,3.91-.66,1.23-.43,2.31-1.01,3.26-1.72.94-.72,1.73-1.51,2.38-2.38.64-.87,1.11-1.73,1.42-2.61h2.45v3.22c0,2.2-.16,4.23-.5,6.1-.33,1.87-.92,3.45-1.77,4.76s-1.98,2.33-3.42,3.07-3.22,1.11-5.37,1.11c-1.03,0-2.11-.11-3.26-.35-1.15-.23-2.22-.61-3.18-1.11-.97-.51-1.8-1.18-2.45-1.99-.67-.82-1.03-1.82-1.08-3H2.52c.1,2.14.66,3.96,1.65,5.45s2.27,2.69,3.8,3.6c1.54.92,3.25,1.58,5.14,1.99,1.89.41,3.76.62,5.6.62,6.44,0,11.07-1.72,13.88-5.18,2.81-3.45,4.15-8.48,3.99-15.07v-24.25h1.73c1.56,0,2.81-1.26,2.81-2.82v-1.94h-4.56v-6.52l.02.02ZM30.08,60.96v16.26h-2.45c-.41.77-.87,1.54-1.39,2.3-.51.77-1.15,1.45-1.92,2.03-.77.58-1.69,1.07-2.76,1.42-1.08.36-2.38.53-3.91.53s-2.87-.27-4.18-.8-2.43-1.39-3.38-2.53-1.7-2.64-2.27-4.45c-.56-1.82-.84-4.03-.84-6.64s.28-4.83.84-6.67c.56-1.84,1.31-3.34,2.27-4.48.94-1.15,2.07-1.99,3.38-2.53,1.3-.53,2.7-.8,4.18-.8s2.84.18,3.91.53c1.08.36,1.99.83,2.76,1.42s1.41,1.26,1.92,2.03.97,1.54,1.39,2.3h2.45v.09Z"/>
    <path class="st0" d="M72.36,78.08h-2.53c-.15.36-.37.89-.66,1.61-.28.72-.77,1.44-1.46,2.14-.69.72-1.64,1.33-2.84,1.84-1.2.51-2.8.77-4.79.77-1.8,0-3.2-.27-4.22-.8-1.03-.53-1.78-1.2-2.27-1.99-.48-.79-.79-1.67-.92-2.65-.12-.97-.19-1.89-.19-2.76v-26.55h-6.44v25.78c0,2.81.33,5.17,1,7.06.67,1.89,1.58,3.42,2.76,4.57,1.18,1.15,2.54,1.97,4.1,2.45s3.21.73,4.95.73c2.56,0,4.77-.56,6.64-1.68,1.87-1.13,3.31-3.02,4.33-5.67h2.53v6.44h6.44v-39.67h-6.44v28.38h.02Z"/>
    <path class="st0" d="M93.01,34.58h-3.79v5.24c0,1.51,1.23,2.74,2.74,2.74h3.79v-5.24c0-1.51-1.23-2.74-2.74-2.74Z"/>
    <path class="st0" d="M241,37.32v5.24h3.79c1.51,0,2.74-1.23,2.74-2.74v-5.24h-3.79c-1.51,0-2.74,1.23-2.74,2.74Z"/>
    <rect class="st0" x="89.24" y="49.69" width="6.53" height="39.67"/>
    <path class="st0" d="M134.65,56.14h-2.45c-.31-.87-.79-1.75-1.46-2.65s-1.47-1.7-2.42-2.42c-.94-.72-2.03-1.29-3.26-1.72-1.23-.43-2.53-.66-3.91-.66-2.5,0-4.82.45-6.95,1.34s-3.95,2.23-5.49,3.99-2.74,3.94-3.6,6.53c-.87,2.59-1.3,5.59-1.3,9.02s.43,6.35,1.3,8.94,2.07,4.74,3.6,6.49c1.54,1.74,3.37,3.06,5.49,3.95,2.12.89,4.43,1.34,6.95,1.34,1.39,0,2.69-.22,3.91-.66,1.23-.43,2.31-1.01,3.26-1.72.94-.72,1.75-1.52,2.42-2.42.67-.89,1.15-1.78,1.46-2.65h2.45v6.53h6.53v-54.79h-6.53v21.56h0ZM134.65,78.08h-2.45c-.41.77-.87,1.54-1.39,2.3-.51.77-1.15,1.46-1.92,2.07s-1.7,1.11-2.8,1.5c-1.1.38-2.42.57-3.95.57s-2.9-.3-4.26-.88-2.56-1.5-3.6-2.72c-1.05-1.23-1.89-2.77-2.53-4.64-.64-1.87-.95-4.1-.95-6.71s.32-4.87.95-6.79,1.49-3.49,2.53-4.72c1.05-1.23,2.25-2.13,3.6-2.72,1.35-.58,2.77-.88,4.26-.88s2.85.19,3.95.57,2.03.88,2.8,1.5,1.41,1.3,1.92,2.07.97,1.54,1.39,2.3h2.45v17.19h0Z"/>
    <path class="st0" d="M180.84,53.18c-1.94-1.61-4.03-2.75-6.25-3.42-2.23-.67-4.31-1-6.25-1s-3.96.33-6.22,1c-2.25.67-4.33,1.81-6.25,3.42s-3.52,3.75-4.79,6.4c-1.28,2.66-1.92,5.98-1.92,9.97s.64,7.31,1.92,9.93c1.28,2.64,2.87,4.76,4.79,6.37s4,2.75,6.25,3.42c2.25.67,4.32,1,6.22,1s4.03-.33,6.25-1,4.31-1.81,6.25-3.42,3.55-3.74,4.83-6.37,1.92-5.94,1.92-9.93-.64-7.32-1.92-9.97-2.89-4.79-4.83-6.4h0ZM180.15,75.7c-.62,1.84-1.47,3.42-2.57,4.72s-2.43,2.32-3.99,3.03c-1.56.72-3.31,1.08-5.25,1.08s-3.63-.36-5.21-1.08c-1.59-.72-2.92-1.72-4.03-3.03-1.1-1.3-1.96-2.87-2.57-4.72s-.92-3.89-.92-6.14.31-4.37.92-6.22,1.47-3.42,2.57-4.72,2.44-2.31,4.03-3.03c1.58-.72,3.32-1.08,5.21-1.08s3.69.36,5.25,1.08c1.56.72,2.89,1.72,3.99,3.03,1.1,1.3,1.96,2.87,2.57,4.72s.92,3.91.92,6.22-.31,4.3-.92,6.14Z"/>
    <path class="st0" d="M228.02,54.07c-1.54-1.73-3.37-3.06-5.49-3.95-2.12-.89-4.46-1.34-7.02-1.34-1.39,0-2.68.22-3.88.66-1.2.43-2.28,1.01-3.22,1.72s-1.75,1.52-2.42,2.42c-.67.89-1.15,1.78-1.46,2.65h-2.53v-6.53h-6.44v6.52h-4.63v3.56c0,.66.53,1.2,1.2,1.2h3.44v17.19h-3.44c-.66,0-1.2.53-1.2,1.2v3.56h4.63v21.56h6.44v-21.56h2.53c.31.87.79,1.75,1.46,2.65s1.47,1.7,2.42,2.42c.94.72,2.02,1.29,3.22,1.72s2.49.66,3.88.66c2.56,0,4.89-.45,7.02-1.34,2.12-.89,3.95-2.23,5.49-3.99s2.74-3.94,3.6-6.53c.87-2.59,1.3-5.59,1.3-9.02s-.43-6.35-1.3-8.94-2.07-4.74-3.6-6.49h0ZM225.08,76.27c-.64,1.92-1.5,3.49-2.57,4.72-1.08,1.23-2.29,2.13-3.64,2.72-1.35.58-2.77.88-4.26.88s-2.85-.19-3.95-.57-2.03-.88-2.8-1.5-1.41-1.3-1.92-2.07-.97-1.54-1.39-2.3h-2.53v-17.19h2.53c.41-.77.87-1.54,1.39-2.3.51-.77,1.15-1.46,1.92-2.07s1.7-1.11,2.8-1.5c1.1-.38,2.42-.57,3.95-.57s2.9.3,4.26.88c1.35.58,2.57,1.5,3.64,2.72s1.93,2.77,2.57,4.64.95,4.1.95,6.71-.32,4.87-.95,6.79h0Z"/>
    <rect class="st0" x="241" y="49.69" width="6.53" height="39.67"/>
    <path class="st0" d="M287.18,53.18c-1.94-1.61-4.03-2.75-6.25-3.42-2.23-.67-4.31-1-6.25-1s-3.96.33-6.22,1c-2.25.67-4.33,1.81-6.25,3.42s-3.52,3.75-4.79,6.4c-1.28,2.66-1.92,5.98-1.92,9.97s.64,7.31,1.92,9.93c1.28,2.64,2.87,4.76,4.79,6.37s4,2.75,6.25,3.42c2.25.67,4.32,1,6.22,1s4.03-.33,6.25-1,4.31-1.81,6.25-3.42c1.94-1.61,3.55-3.74,4.83-6.37s1.92-5.94,1.92-9.93-.64-7.32-1.92-9.97-2.89-4.79-4.83-6.4h0ZM286.5,75.7c-.62,1.84-1.47,3.42-2.57,4.72s-2.43,2.32-3.99,3.03c-1.56.72-3.31,1.08-5.25,1.08s-3.63-.36-5.21-1.08c-1.59-.72-2.92-1.72-4.03-3.03-1.1-1.3-1.96-2.87-2.57-4.72s-.92-3.89-.92-6.14.31-4.37.92-6.22,1.47-3.42,2.57-4.72,2.44-2.31,4.03-3.03c1.58-.72,3.32-1.08,5.21-1.08s3.69.36,5.25,1.08,2.89,1.72,3.99,3.03,1.96,2.87,2.57,4.72.92,3.91.92,6.22-.31,4.3-.92,6.14Z"/>
    <path class="st0" d="M340.43,50.07c-.46.26-.86.61-1.19,1.04s-.62.91-.84,1.42c-.23.51-.45,1-.66,1.46h-2.53v-16.19h-6.53v11.89h-12.36c-.67,0-1.23.13-1.69.38-.46.26-.86.61-1.19,1.04s-.62.91-.84,1.42c-.23.51-.45,1-.66,1.46h-2.53v-16.19h-6.53v11.89h-5.52v5.76h5.52v25.86c0,.87.11,1.78.35,2.72.23.94.64,1.82,1.23,2.61.58.79,1.36,1.45,2.34,1.96s2.2.77,3.68.77h8.74v-5.76h-5.45c-1.08,0-1.92-.09-2.53-.27s-1.05-.43-1.3-.77c-.26-.33-.41-.72-.46-1.15-.05-.43-.07-.88-.07-1.34v-24.63h9.46c.29,0,.56-.08.81-.23l3.46-2.13h0c0,1.31,1.06,2.37,2.36,2.37h3.16v25.86c0,.87.11,1.78.35,2.72.23.94.64,1.82,1.23,2.61.58.79,1.36,1.45,2.34,1.96s2.2.77,3.68.77h8.74v-5.76h-5.45c-1.08,0-1.92-.09-2.53-.27s-1.05-.43-1.3-.77c-.26-.33-.41-.72-.46-1.15-.05-.43-.07-.88-.07-1.34v-24.63h9.9v-5.76h-3c-.67,0-1.23.13-1.69.38h.03Z"/>
    <path class="st0" d="M381.94,53.18c-1.94-1.61-4.03-2.75-6.25-3.42-2.23-.67-4.31-1-6.25-1s-3.96.33-6.22,1c-2.25.67-4.33,1.81-6.25,3.42s-3.52,3.75-4.79,6.4c-1.28,2.66-1.92,5.98-1.92,9.97s.64,7.31,1.92,9.93c1.28,2.64,2.87,4.76,4.79,6.37,1.92,1.61,4,2.75,6.25,3.42,2.25.67,4.32,1,6.22,1s4.03-.33,6.25-1,4.31-1.81,6.25-3.42c1.94-1.61,3.55-3.74,4.83-6.37s1.92-5.94,1.92-9.93-.64-7.32-1.92-9.97-2.89-4.79-4.83-6.4h0ZM381.24,75.7c-.62,1.84-1.47,3.42-2.57,4.72s-2.43,2.32-3.99,3.03c-1.56.72-3.31,1.08-5.25,1.08s-3.63-.36-5.21-1.08c-1.59-.72-2.92-1.72-4.03-3.03-1.1-1.3-1.96-2.87-2.57-4.72s-.92-3.89-.92-6.14.31-4.37.92-6.22,1.47-3.42,2.57-4.72,2.44-2.31,4.03-3.03c1.58-.72,3.32-1.08,5.21-1.08s3.69.36,5.25,1.08,2.89,1.72,3.99,3.03,1.96,2.87,2.57,4.72.92,3.91.92,6.22-.31,4.3-.92,6.14Z"/>
    <path class="st0" d="M394.99,42.37h0c-2.37,0-4.95,1.54-5.01,4.94v.02c.06,3.39,2.64,4.94,5.01,4.94h0c2.37,0,4.95-1.54,5.01-4.95-.06-3.39-2.64-4.94-5.01-4.94h0ZM394.99,51.35c-1.94,0-4.05-1.26-4.1-4.04.05-2.77,2.17-4.04,4.1-4.04h0c1.94,0,4.05,1.26,4.1,4.03-.05,2.78-2.17,4.04-4.1,4.04h0Z"/>
  </g>
  <path class="st0" d="M393.58,49.5v-4.22h1.7c.26,0,.49.04.69.13.19.09.36.22.46.39.11.16.16.37.16.6v.06c0,.28-.06.49-.19.66s-.29.27-.47.33v.08c.14,0,.27.05.36.14s.14.23.14.41v1.42h-.5v-1.35c0-.12-.03-.22-.1-.28-.06-.06-.16-.09-.3-.09h-1.46v1.72h-.5.01ZM394.08,47.31h1.15c.28,0,.49-.07.64-.21.15-.13.23-.32.23-.56v-.04c0-.24-.07-.43-.23-.56s-.36-.21-.65-.21h-1.15v1.57h.01Z"/>
</svg>